<mxfile modified="2019-12-05T09:45:00.813Z" host="www.draw.io" agent="Mozilla/5.0 (Macintosh; Intel Mac OS X 10_15_1) AppleWebKit/605.1.15 (KHTML, like Gecko) Version/13.0.3 Safari/605.1.15" etag="BzWpzYpJ146FJ_HkXXdg" version="12.3.6" type="github" pages="1">
  <diagram id="oozkSbW9tRgO9davWDht" name="Ã§Â¬Â¬ 1 Ã©Â¡Âµ">
    <mxGraphModel dx="946" dy="583" grid="0" gridSize="10" guides="1" tooltips="1" connect="1" arrows="1" fold="1" page="1" pageScale="1" pageWidth="3300" pageHeight="4681" math="0" shadow="0">
      <root>
        <mxCell id="0"/>
        <mxCell id="1" parent="0"/>
        <mxCell id="0qH-9EDrpJP9-Y-19pUg-6" style="rounded=0;orthogonalLoop=1;jettySize=auto;html=1;fontSize=19;entryX=0;entryY=0.5;entryDx=0;entryDy=0;" parent="1" source="0qH-9EDrpJP9-Y-19pUg-1" target="0qH-9EDrpJP9-Y-19pUg-5" edge="1">
          <mxGeometry relative="1" as="geometry"/>
        </mxCell>
        <mxCell id="0qH-9EDrpJP9-Y-19pUg-7" style="edgeStyle=none;rounded=0;orthogonalLoop=1;jettySize=auto;html=1;entryX=0;entryY=0.5;entryDx=0;entryDy=0;fontSize=19;" parent="1" source="0qH-9EDrpJP9-Y-19pUg-1" target="0qH-9EDrpJP9-Y-19pUg-2" edge="1">
          <mxGeometry relative="1" as="geometry"/>
        </mxCell>
        <mxCell id="0qH-9EDrpJP9-Y-19pUg-8" style="edgeStyle=none;rounded=0;orthogonalLoop=1;jettySize=auto;html=1;entryX=0;entryY=0.5;entryDx=0;entryDy=0;fontSize=19;" parent="1" source="0qH-9EDrpJP9-Y-19pUg-1" target="0qH-9EDrpJP9-Y-19pUg-4" edge="1">
          <mxGeometry relative="1" as="geometry"/>
        </mxCell>
        <mxCell id="0qH-9EDrpJP9-Y-19pUg-9" style="edgeStyle=none;rounded=0;orthogonalLoop=1;jettySize=auto;html=1;entryX=0;entryY=0.5;entryDx=0;entryDy=0;fontSize=19;" parent="1" source="0qH-9EDrpJP9-Y-19pUg-1" target="0qH-9EDrpJP9-Y-19pUg-3" edge="1">
          <mxGeometry relative="1" as="geometry"/>
        </mxCell>
        <mxCell id="0qH-9EDrpJP9-Y-19pUg-17" style="edgeStyle=none;rounded=0;orthogonalLoop=1;jettySize=auto;html=1;entryX=0;entryY=0.5;entryDx=0;entryDy=0;fontSize=19;" parent="1" source="0qH-9EDrpJP9-Y-19pUg-1" target="0qH-9EDrpJP9-Y-19pUg-16" edge="1">
          <mxGeometry relative="1" as="geometry"/>
        </mxCell>
        <mxCell id="0qH-9EDrpJP9-Y-19pUg-19" style="edgeStyle=none;rounded=0;orthogonalLoop=1;jettySize=auto;html=1;exitX=1;exitY=1;exitDx=0;exitDy=0;exitPerimeter=0;entryX=0;entryY=0.5;entryDx=0;entryDy=0;fontSize=19;" parent="1" source="0qH-9EDrpJP9-Y-19pUg-1" target="0qH-9EDrpJP9-Y-19pUg-18" edge="1">
          <mxGeometry relative="1" as="geometry"/>
        </mxCell>
        <mxCell id="0qH-9EDrpJP9-Y-19pUg-35" style="edgeStyle=none;rounded=0;orthogonalLoop=1;jettySize=auto;html=1;entryX=0;entryY=0.5;entryDx=0;entryDy=0;fontSize=19;" parent="1" source="0qH-9EDrpJP9-Y-19pUg-1" target="0qH-9EDrpJP9-Y-19pUg-34" edge="1">
          <mxGeometry relative="1" as="geometry"/>
        </mxCell>
        <mxCell id="0qH-9EDrpJP9-Y-19pUg-37" style="edgeStyle=none;rounded=0;orthogonalLoop=1;jettySize=auto;html=1;entryX=0;entryY=0.5;entryDx=0;entryDy=0;fontSize=19;" parent="1" source="0qH-9EDrpJP9-Y-19pUg-1" target="0qH-9EDrpJP9-Y-19pUg-32" edge="1">
          <mxGeometry relative="1" as="geometry"/>
        </mxCell>
        <mxCell id="0qH-9EDrpJP9-Y-19pUg-48" style="edgeStyle=none;rounded=0;orthogonalLoop=1;jettySize=auto;html=1;entryX=0;entryY=0.5;entryDx=0;entryDy=0;fontSize=19;" parent="1" source="0qH-9EDrpJP9-Y-19pUg-1" target="0qH-9EDrpJP9-Y-19pUg-46" edge="1">
          <mxGeometry relative="1" as="geometry"/>
        </mxCell>
        <mxCell id="ZpZ45_vEI-XIFmBjgbPw-2" style="rounded=0;orthogonalLoop=1;jettySize=auto;html=1;entryX=0;entryY=0.5;entryDx=0;entryDy=0;" parent="1" source="0qH-9EDrpJP9-Y-19pUg-1" target="ZpZ45_vEI-XIFmBjgbPw-1" edge="1">
          <mxGeometry relative="1" as="geometry"/>
        </mxCell>
        <mxCell id="ZpZ45_vEI-XIFmBjgbPw-5" style="edgeStyle=none;rounded=0;orthogonalLoop=1;jettySize=auto;html=1;entryX=0;entryY=0.5;entryDx=0;entryDy=0;" parent="1" source="0qH-9EDrpJP9-Y-19pUg-1" target="ZpZ45_vEI-XIFmBjgbPw-4" edge="1">
          <mxGeometry relative="1" as="geometry"/>
        </mxCell>
        <mxCell id="0qH-9EDrpJP9-Y-19pUg-1" value="区块链管理员" style="shape=umlActor;verticalLabelPosition=bottom;labelBackgroundColor=#ffffff;verticalAlign=top;html=1;fontSize=19;" parent="1" vertex="1">
          <mxGeometry x="260" y="220" width="30" height="60" as="geometry"/>
        </mxCell>
        <mxCell id="8plSU3mydQgTcdB5nCTO-7" style="edgeStyle=none;rounded=0;orthogonalLoop=1;jettySize=auto;html=1;entryX=0;entryY=0.5;entryDx=0;entryDy=0;entryPerimeter=0;dashed=1;fontSize=15;" parent="1" source="0qH-9EDrpJP9-Y-19pUg-2" target="8plSU3mydQgTcdB5nCTO-4" edge="1">
          <mxGeometry relative="1" as="geometry"/>
        </mxCell>
        <mxCell id="0qH-9EDrpJP9-Y-19pUg-2" value="网络管理&lt;br style=&quot;font-size: 19px;&quot;&gt;" style="ellipse;whiteSpace=wrap;html=1;fontSize=19;" parent="1" vertex="1">
          <mxGeometry x="520" y="285" width="140" height="48" as="geometry"/>
        </mxCell>
        <mxCell id="8plSU3mydQgTcdB5nCTO-9" style="edgeStyle=none;rounded=0;orthogonalLoop=1;jettySize=auto;html=1;dashed=1;fontSize=15;" parent="1" source="0qH-9EDrpJP9-Y-19pUg-3" target="8plSU3mydQgTcdB5nCTO-8" edge="1">
          <mxGeometry relative="1" as="geometry"/>
        </mxCell>
        <mxCell id="0qH-9EDrpJP9-Y-19pUg-3" value="成员管理" style="ellipse;whiteSpace=wrap;html=1;fontSize=19;" parent="1" vertex="1">
          <mxGeometry x="520" y="416" width="140" height="50" as="geometry"/>
        </mxCell>
        <mxCell id="0qH-9EDrpJP9-Y-19pUg-4" value="通道管理" style="ellipse;whiteSpace=wrap;html=1;fontSize=19;" parent="1" vertex="1">
          <mxGeometry x="520" y="352" width="140" height="45" as="geometry"/>
        </mxCell>
        <mxCell id="0qH-9EDrpJP9-Y-19pUg-5" value="角色管理" style="ellipse;whiteSpace=wrap;html=1;fontSize=19;" parent="1" vertex="1">
          <mxGeometry x="511" y="35" width="140" height="50" as="geometry"/>
        </mxCell>
        <mxCell id="8plSU3mydQgTcdB5nCTO-3" style="edgeStyle=none;rounded=0;orthogonalLoop=1;jettySize=auto;html=1;entryX=0;entryY=0.5;entryDx=0;entryDy=0;entryPerimeter=0;dashed=1;" parent="1" source="0qH-9EDrpJP9-Y-19pUg-16" target="8plSU3mydQgTcdB5nCTO-2" edge="1">
          <mxGeometry relative="1" as="geometry"/>
        </mxCell>
        <mxCell id="0qH-9EDrpJP9-Y-19pUg-16" value="基础资源管理&lt;br style=&quot;font-size: 19px&quot;&gt;" style="ellipse;whiteSpace=wrap;html=1;fontSize=19;" parent="1" vertex="1">
          <mxGeometry x="520" y="220" width="140" height="49" as="geometry"/>
        </mxCell>
        <mxCell id="8plSU3mydQgTcdB5nCTO-11" style="edgeStyle=none;rounded=0;orthogonalLoop=1;jettySize=auto;html=1;entryX=0;entryY=0.5;entryDx=0;entryDy=0;entryPerimeter=0;dashed=1;fontSize=15;exitX=1;exitY=0.5;exitDx=0;exitDy=0;" parent="1" source="0qH-9EDrpJP9-Y-19pUg-18" target="8plSU3mydQgTcdB5nCTO-10" edge="1">
          <mxGeometry relative="1" as="geometry"/>
        </mxCell>
        <mxCell id="0qH-9EDrpJP9-Y-19pUg-18" value="智能合约管理" style="ellipse;whiteSpace=wrap;html=1;fontSize=19;" parent="1" vertex="1">
          <mxGeometry x="520" y="480" width="140" height="56" as="geometry"/>
        </mxCell>
        <mxCell id="0qH-9EDrpJP9-Y-19pUg-31" style="edgeStyle=none;rounded=0;orthogonalLoop=1;jettySize=auto;html=1;entryX=0;entryY=0.5;entryDx=0;entryDy=0;fontSize=19;fillColor=#dae8fc;strokeColor=#6c8ebf;" parent="1" source="0qH-9EDrpJP9-Y-19pUg-29" target="0qH-9EDrpJP9-Y-19pUg-18" edge="1">
          <mxGeometry relative="1" as="geometry"/>
        </mxCell>
        <mxCell id="0qH-9EDrpJP9-Y-19pUg-33" style="edgeStyle=none;rounded=0;orthogonalLoop=1;jettySize=auto;html=1;entryX=0;entryY=0.5;entryDx=0;entryDy=0;fontSize=19;fillColor=#dae8fc;strokeColor=#6c8ebf;" parent="1" source="0qH-9EDrpJP9-Y-19pUg-29" target="0qH-9EDrpJP9-Y-19pUg-32" edge="1">
          <mxGeometry relative="1" as="geometry"/>
        </mxCell>
        <mxCell id="0qH-9EDrpJP9-Y-19pUg-36" style="edgeStyle=none;rounded=0;orthogonalLoop=1;jettySize=auto;html=1;entryX=0;entryY=0.5;entryDx=0;entryDy=0;fontSize=19;fillColor=#dae8fc;strokeColor=#6c8ebf;" parent="1" source="0qH-9EDrpJP9-Y-19pUg-29" target="0qH-9EDrpJP9-Y-19pUg-34" edge="1">
          <mxGeometry relative="1" as="geometry"/>
        </mxCell>
        <mxCell id="0qH-9EDrpJP9-Y-19pUg-39" style="edgeStyle=none;rounded=0;orthogonalLoop=1;jettySize=auto;html=1;entryX=0;entryY=0.5;entryDx=0;entryDy=0;fontSize=19;fillColor=#dae8fc;strokeColor=#6c8ebf;" parent="1" source="0qH-9EDrpJP9-Y-19pUg-29" target="0qH-9EDrpJP9-Y-19pUg-38" edge="1">
          <mxGeometry relative="1" as="geometry"/>
        </mxCell>
        <mxCell id="ZpZ45_vEI-XIFmBjgbPw-3" style="edgeStyle=none;rounded=0;orthogonalLoop=1;jettySize=auto;html=1;entryX=0;entryY=0.5;entryDx=0;entryDy=0;fillColor=#dae8fc;strokeColor=#6c8ebf;" parent="1" source="0qH-9EDrpJP9-Y-19pUg-29" target="ZpZ45_vEI-XIFmBjgbPw-1" edge="1">
          <mxGeometry relative="1" as="geometry"/>
        </mxCell>
        <mxCell id="0qH-9EDrpJP9-Y-19pUg-29" value="操作员&lt;br style=&quot;font-size: 19px&quot;&gt;" style="shape=umlActor;verticalLabelPosition=bottom;labelBackgroundColor=#ffffff;verticalAlign=top;html=1;fontSize=19;" parent="1" vertex="1">
          <mxGeometry x="260" y="372.5" width="30" height="60" as="geometry"/>
        </mxCell>
        <mxCell id="8plSU3mydQgTcdB5nCTO-13" style="edgeStyle=none;rounded=0;orthogonalLoop=1;jettySize=auto;html=1;entryX=0;entryY=0.5;entryDx=0;entryDy=0;entryPerimeter=0;dashed=1;fontSize=15;exitX=1;exitY=0.5;exitDx=0;exitDy=0;" parent="1" source="0qH-9EDrpJP9-Y-19pUg-32" target="8plSU3mydQgTcdB5nCTO-12" edge="1">
          <mxGeometry relative="1" as="geometry"/>
        </mxCell>
        <mxCell id="0qH-9EDrpJP9-Y-19pUg-32" value="系统监控" style="ellipse;whiteSpace=wrap;html=1;fontSize=19;" parent="1" vertex="1">
          <mxGeometry x="520" y="669" width="140" height="50" as="geometry"/>
        </mxCell>
        <mxCell id="8plSU3mydQgTcdB5nCTO-1" style="rounded=0;orthogonalLoop=1;jettySize=auto;html=1;entryX=0;entryY=0.5;entryDx=0;entryDy=0;entryPerimeter=0;dashed=1;exitX=1;exitY=0.5;exitDx=0;exitDy=0;" parent="1" source="0qH-9EDrpJP9-Y-19pUg-5" target="Ccfd51ajzRlaOkpZHizr-2" edge="1">
          <mxGeometry relative="1" as="geometry"/>
        </mxCell>
        <mxCell id="0qH-9EDrpJP9-Y-19pUg-34" value="系统仪表盘" style="ellipse;whiteSpace=wrap;html=1;fontSize=19;" parent="1" vertex="1">
          <mxGeometry x="520" y="159" width="140" height="55" as="geometry"/>
        </mxCell>
        <mxCell id="0qH-9EDrpJP9-Y-19pUg-38" value="系统日志" style="ellipse;whiteSpace=wrap;html=1;fontSize=19;" parent="1" vertex="1">
          <mxGeometry x="520" y="733" width="140" height="50" as="geometry"/>
        </mxCell>
        <mxCell id="0qH-9EDrpJP9-Y-19pUg-43" style="edgeStyle=none;rounded=0;orthogonalLoop=1;jettySize=auto;html=1;entryX=0;entryY=0.5;entryDx=0;entryDy=0;fontSize=19;exitX=1;exitY=0.3333333333333333;exitDx=0;exitDy=0;exitPerimeter=0;fillColor=#f8cecc;strokeColor=#b85450;" parent="1" source="0qH-9EDrpJP9-Y-19pUg-40" target="0qH-9EDrpJP9-Y-19pUg-34" edge="1">
          <mxGeometry relative="1" as="geometry"/>
        </mxCell>
        <mxCell id="0qH-9EDrpJP9-Y-19pUg-44" style="edgeStyle=none;rounded=0;orthogonalLoop=1;jettySize=auto;html=1;entryX=0;entryY=0.5;entryDx=0;entryDy=0;fontSize=19;fillColor=#f8cecc;strokeColor=#b85450;" parent="1" source="0qH-9EDrpJP9-Y-19pUg-40" target="0qH-9EDrpJP9-Y-19pUg-38" edge="1">
          <mxGeometry relative="1" as="geometry"/>
        </mxCell>
        <mxCell id="0qH-9EDrpJP9-Y-19pUg-45" style="edgeStyle=none;rounded=0;orthogonalLoop=1;jettySize=auto;html=1;entryX=0;entryY=0.5;entryDx=0;entryDy=0;fontSize=19;fillColor=#f8cecc;strokeColor=#b85450;" parent="1" source="0qH-9EDrpJP9-Y-19pUg-40" target="0qH-9EDrpJP9-Y-19pUg-32" edge="1">
          <mxGeometry relative="1" as="geometry"/>
        </mxCell>
        <mxCell id="0qH-9EDrpJP9-Y-19pUg-47" style="edgeStyle=none;rounded=0;orthogonalLoop=1;jettySize=auto;html=1;entryX=0;entryY=0.5;entryDx=0;entryDy=0;fontSize=19;fillColor=#f8cecc;strokeColor=#b85450;" parent="1" source="0qH-9EDrpJP9-Y-19pUg-40" target="0qH-9EDrpJP9-Y-19pUg-46" edge="1">
          <mxGeometry relative="1" as="geometry"/>
        </mxCell>
        <mxCell id="0qH-9EDrpJP9-Y-19pUg-40" value="审核员" style="shape=umlActor;verticalLabelPosition=bottom;labelBackgroundColor=#ffffff;verticalAlign=top;html=1;fontSize=19;" parent="1" vertex="1">
          <mxGeometry x="260" y="510" width="30" height="60" as="geometry"/>
        </mxCell>
        <mxCell id="0qH-9EDrpJP9-Y-19pUg-46" value="统计报表" style="ellipse;whiteSpace=wrap;html=1;fontSize=19;" parent="1" vertex="1">
          <mxGeometry x="520" y="797" width="140" height="50" as="geometry"/>
        </mxCell>
        <mxCell id="Ccfd51ajzRlaOkpZHizr-2" value="角色增删改查&lt;br style=&quot;font-size: 15px&quot;&gt;角色权限&lt;br&gt;角色成员管理" style="shape=note;whiteSpace=wrap;html=1;backgroundOutline=1;darkOpacity=0.05;fontSize=15;align=left;dashed=1;dashPattern=1 1;" parent="1" vertex="1">
          <mxGeometry x="754" y="25" width="160" height="80" as="geometry"/>
        </mxCell>
        <mxCell id="8plSU3mydQgTcdB5nCTO-2" value="基础主机管理&lt;br style=&quot;font-size: 15px;&quot;&gt;公有云资源管理&lt;br style=&quot;font-size: 15px;&quot;&gt;私有云管理（K8S）&lt;br style=&quot;font-size: 15px;&quot;&gt;" style="shape=note;whiteSpace=wrap;html=1;backgroundOutline=1;darkOpacity=0.05;fontSize=15;align=left;dashed=1;dashPattern=1 1;" parent="1" vertex="1">
          <mxGeometry x="747" y="214" width="187" height="80" as="geometry"/>
        </mxCell>
        <mxCell id="8plSU3mydQgTcdB5nCTO-6" value="" style="edgeStyle=none;rounded=0;orthogonalLoop=1;jettySize=auto;html=1;dashed=1;fontSize=15;exitX=1;exitY=0.5;exitDx=0;exitDy=0;entryX=0;entryY=0.5;entryDx=0;entryDy=0;entryPerimeter=0;" parent="1" source="0qH-9EDrpJP9-Y-19pUg-4" target="8plSU3mydQgTcdB5nCTO-5" edge="1">
          <mxGeometry relative="1" as="geometry"/>
        </mxCell>
        <mxCell id="8plSU3mydQgTcdB5nCTO-4" value="网络创建&lt;br&gt;网络加入&lt;br&gt;网络退出&lt;br&gt;联盟成员加入审批&lt;br&gt;已有网络接管&lt;br style=&quot;font-size: 15px&quot;&gt;" style="shape=note;whiteSpace=wrap;html=1;backgroundOutline=1;darkOpacity=0.05;fontSize=15;align=left;dashed=1;dashPattern=1 1;" parent="1" vertex="1">
          <mxGeometry x="747" y="309" width="174" height="100" as="geometry"/>
        </mxCell>
        <mxCell id="8plSU3mydQgTcdB5nCTO-5" value="通道创建&lt;br&gt;通道申请加入&lt;br&gt;通道退出&lt;br style=&quot;font-size: 15px&quot;&gt;" style="shape=note;whiteSpace=wrap;html=1;backgroundOutline=1;darkOpacity=0.05;fontSize=15;align=left;dashed=1;dashPattern=1 1;" parent="1" vertex="1">
          <mxGeometry x="746.5" y="418" width="180" height="77" as="geometry"/>
        </mxCell>
        <mxCell id="8plSU3mydQgTcdB5nCTO-8" value="成员创建&lt;br&gt;证书下载&lt;br&gt;成员删除&lt;br style=&quot;font-size: 15px&quot;&gt;" style="shape=note;whiteSpace=wrap;html=1;backgroundOutline=1;darkOpacity=0.05;fontSize=15;align=left;dashed=1;dashPattern=1 1;" parent="1" vertex="1">
          <mxGeometry x="747" y="516" width="180" height="77" as="geometry"/>
        </mxCell>
        <mxCell id="8plSU3mydQgTcdB5nCTO-10" value="合约在线开发&lt;br&gt;合约在线测试&lt;br&gt;合约创建保存&lt;br&gt;合约查询&lt;br&gt;合约删除&lt;br&gt;合约部署&lt;br&gt;合约升级&lt;br&gt;版本管理&lt;br style=&quot;font-size: 15px&quot;&gt;" style="shape=note;whiteSpace=wrap;html=1;backgroundOutline=1;darkOpacity=0.05;fontSize=15;align=left;dashed=1;dashPattern=1 1;" parent="1" vertex="1">
          <mxGeometry x="750" y="600" width="180" height="150" as="geometry"/>
        </mxCell>
        <mxCell id="8plSU3mydQgTcdB5nCTO-12" value="状态监控&lt;br&gt;状态管理(启停操作)&lt;br style=&quot;font-size: 15px&quot;&gt;" style="shape=note;whiteSpace=wrap;html=1;backgroundOutline=1;darkOpacity=0.05;fontSize=15;align=left;dashed=1;dashPattern=1 1;" parent="1" vertex="1">
          <mxGeometry x="750" y="758.5" width="180" height="77" as="geometry"/>
        </mxCell>
        <mxCell id="ZpZ45_vEI-XIFmBjgbPw-1" value="事件管理" style="ellipse;whiteSpace=wrap;html=1;fontSize=19;" parent="1" vertex="1">
          <mxGeometry x="520" y="543" width="140" height="50" as="geometry"/>
        </mxCell>
        <mxCell id="ZpZ45_vEI-XIFmBjgbPw-4" value="计费管理" style="ellipse;whiteSpace=wrap;html=1;fontSize=19;" parent="1" vertex="1">
          <mxGeometry x="520" y="606" width="140" height="50" as="geometry"/>
        </mxCell>
        <mxCell id="s-LMiSfw2OvxJg3AGcIB-1" value="平台管理员" style="shape=umlActor;verticalLabelPosition=bottom;labelBackgroundColor=#ffffff;verticalAlign=top;html=1;fontSize=19;" parent="1" vertex="1">
          <mxGeometry x="260" y="70" width="30" height="60" as="geometry"/>
        </mxCell>
        <mxCell id="s-LMiSfw2OvxJg3AGcIB-5" value="平台成员管理" style="ellipse;whiteSpace=wrap;html=1;fontSize=19;" parent="1" vertex="1">
          <mxGeometry x="520" y="97" width="140" height="50" as="geometry"/>
        </mxCell>
        <mxCell id="s-LMiSfw2OvxJg3AGcIB-7" value="" style="endArrow=classic;html=1;fontSize=12;exitX=1;exitY=0.3333333333333333;exitDx=0;exitDy=0;exitPerimeter=0;entryX=0;entryY=0.5;entryDx=0;entryDy=0;" parent="1" source="s-LMiSfw2OvxJg3AGcIB-1" target="0qH-9EDrpJP9-Y-19pUg-5" edge="1">
          <mxGeometry width="50" height="50" relative="1" as="geometry">
            <mxPoint x="333" y="87" as="sourcePoint"/>
            <mxPoint x="383" y="37" as="targetPoint"/>
          </mxGeometry>
        </mxCell>
        <mxCell id="s-LMiSfw2OvxJg3AGcIB-8" value="" style="endArrow=classic;html=1;fontSize=12;exitX=1;exitY=0.3333333333333333;exitDx=0;exitDy=0;exitPerimeter=0;entryX=0;entryY=0.5;entryDx=0;entryDy=0;" parent="1" source="s-LMiSfw2OvxJg3AGcIB-1" target="s-LMiSfw2OvxJg3AGcIB-5" edge="1">
          <mxGeometry width="50" height="50" relative="1" as="geometry">
            <mxPoint x="339" y="157" as="sourcePoint"/>
            <mxPoint x="389" y="107" as="targetPoint"/>
          </mxGeometry>
        </mxCell>
        <mxCell id="s-LMiSfw2OvxJg3AGcIB-9" value="平台成员增删改查&lt;br&gt;平台成员角色管理&lt;br style=&quot;font-size: 15px&quot;&gt;" style="shape=note;whiteSpace=wrap;html=1;backgroundOutline=1;darkOpacity=0.05;fontSize=15;align=left;dashed=1;dashPattern=1 1;" parent="1" vertex="1">
          <mxGeometry x="754" y="122" width="160" height="80" as="geometry"/>
        </mxCell>
        <mxCell id="s-LMiSfw2OvxJg3AGcIB-11" value="" style="endArrow=classic;html=1;fontSize=12;exitX=1;exitY=0.5;exitDx=0;exitDy=0;entryX=0;entryY=0.5;entryDx=0;entryDy=0;entryPerimeter=0;dashed=1;" parent="1" source="s-LMiSfw2OvxJg3AGcIB-5" target="s-LMiSfw2OvxJg3AGcIB-9" edge="1">
          <mxGeometry width="50" height="50" relative="1" as="geometry">
            <mxPoint x="694" y="161" as="sourcePoint"/>
            <mxPoint x="744" y="161" as="targetPoint"/>
          </mxGeometry>
        </mxCell>
        <mxCell id="CehQnJ190Mu7V5oRBS2e-1" style="rounded=0;orthogonalLoop=1;jettySize=auto;html=1;fontSize=19;entryX=0;entryY=0.5;entryDx=0;entryDy=0;" edge="1" parent="1" source="CehQnJ190Mu7V5oRBS2e-12" target="CehQnJ190Mu7V5oRBS2e-18">
          <mxGeometry relative="1" as="geometry"/>
        </mxCell>
        <mxCell id="CehQnJ190Mu7V5oRBS2e-2" style="edgeStyle=none;rounded=0;orthogonalLoop=1;jettySize=auto;html=1;entryX=0;entryY=0.5;entryDx=0;entryDy=0;fontSize=19;" edge="1" parent="1" source="CehQnJ190Mu7V5oRBS2e-12" target="CehQnJ190Mu7V5oRBS2e-14">
          <mxGeometry relative="1" as="geometry"/>
        </mxCell>
        <mxCell id="CehQnJ190Mu7V5oRBS2e-3" style="edgeStyle=none;rounded=0;orthogonalLoop=1;jettySize=auto;html=1;entryX=0;entryY=0.5;entryDx=0;entryDy=0;fontSize=19;" edge="1" parent="1" source="CehQnJ190Mu7V5oRBS2e-12" target="CehQnJ190Mu7V5oRBS2e-17">
          <mxGeometry relative="1" as="geometry"/>
        </mxCell>
        <mxCell id="CehQnJ190Mu7V5oRBS2e-4" style="edgeStyle=none;rounded=0;orthogonalLoop=1;jettySize=auto;html=1;entryX=0;entryY=0.5;entryDx=0;entryDy=0;fontSize=19;" edge="1" parent="1" source="CehQnJ190Mu7V5oRBS2e-12" target="CehQnJ190Mu7V5oRBS2e-16">
          <mxGeometry relative="1" as="geometry"/>
        </mxCell>
        <mxCell id="CehQnJ190Mu7V5oRBS2e-5" style="edgeStyle=none;rounded=0;orthogonalLoop=1;jettySize=auto;html=1;entryX=0;entryY=0.5;entryDx=0;entryDy=0;fontSize=19;" edge="1" parent="1" source="CehQnJ190Mu7V5oRBS2e-12" target="CehQnJ190Mu7V5oRBS2e-20">
          <mxGeometry relative="1" as="geometry"/>
        </mxCell>
        <mxCell id="CehQnJ190Mu7V5oRBS2e-6" style="edgeStyle=none;rounded=0;orthogonalLoop=1;jettySize=auto;html=1;exitX=1;exitY=1;exitDx=0;exitDy=0;exitPerimeter=0;entryX=0;entryY=0.5;entryDx=0;entryDy=0;fontSize=19;" edge="1" parent="1" source="CehQnJ190Mu7V5oRBS2e-12" target="CehQnJ190Mu7V5oRBS2e-22">
          <mxGeometry relative="1" as="geometry"/>
        </mxCell>
        <mxCell id="CehQnJ190Mu7V5oRBS2e-7" style="edgeStyle=none;rounded=0;orthogonalLoop=1;jettySize=auto;html=1;entryX=0;entryY=0.5;entryDx=0;entryDy=0;fontSize=19;" edge="1" parent="1" source="CehQnJ190Mu7V5oRBS2e-12" target="CehQnJ190Mu7V5oRBS2e-32">
          <mxGeometry relative="1" as="geometry"/>
        </mxCell>
        <mxCell id="CehQnJ190Mu7V5oRBS2e-8" style="edgeStyle=none;rounded=0;orthogonalLoop=1;jettySize=auto;html=1;entryX=0;entryY=0.5;entryDx=0;entryDy=0;fontSize=19;" edge="1" parent="1" source="CehQnJ190Mu7V5oRBS2e-12" target="CehQnJ190Mu7V5oRBS2e-30">
          <mxGeometry relative="1" as="geometry"/>
        </mxCell>
        <mxCell id="CehQnJ190Mu7V5oRBS2e-12" value="区块链管理员" style="shape=umlActor;verticalLabelPosition=bottom;labelBackgroundColor=#ffffff;verticalAlign=top;html=1;fontSize=19;" vertex="1" parent="1">
          <mxGeometry x="258" y="1083" width="30" height="60" as="geometry"/>
        </mxCell>
        <mxCell id="CehQnJ190Mu7V5oRBS2e-13" style="edgeStyle=none;rounded=0;orthogonalLoop=1;jettySize=auto;html=1;entryX=0;entryY=0.5;entryDx=0;entryDy=0;entryPerimeter=0;dashed=1;fontSize=15;" edge="1" parent="1" source="CehQnJ190Mu7V5oRBS2e-14" target="CehQnJ190Mu7V5oRBS2e-43">
          <mxGeometry relative="1" as="geometry"/>
        </mxCell>
        <mxCell id="CehQnJ190Mu7V5oRBS2e-14" value="网络管理&lt;br style=&quot;font-size: 19px;&quot;&gt;" style="ellipse;whiteSpace=wrap;html=1;fontSize=19;" vertex="1" parent="1">
          <mxGeometry x="518" y="1148" width="140" height="48" as="geometry"/>
        </mxCell>
        <mxCell id="CehQnJ190Mu7V5oRBS2e-15" style="edgeStyle=none;rounded=0;orthogonalLoop=1;jettySize=auto;html=1;dashed=1;fontSize=15;" edge="1" parent="1" source="CehQnJ190Mu7V5oRBS2e-16" target="CehQnJ190Mu7V5oRBS2e-45">
          <mxGeometry relative="1" as="geometry"/>
        </mxCell>
        <mxCell id="CehQnJ190Mu7V5oRBS2e-16" value="成员管理" style="ellipse;whiteSpace=wrap;html=1;fontSize=19;" vertex="1" parent="1">
          <mxGeometry x="518" y="1279" width="140" height="50" as="geometry"/>
        </mxCell>
        <mxCell id="CehQnJ190Mu7V5oRBS2e-17" value="通道管理" style="ellipse;whiteSpace=wrap;html=1;fontSize=19;" vertex="1" parent="1">
          <mxGeometry x="518" y="1215" width="140" height="45" as="geometry"/>
        </mxCell>
        <mxCell id="CehQnJ190Mu7V5oRBS2e-18" value="角色管理" style="ellipse;whiteSpace=wrap;html=1;fontSize=19;" vertex="1" parent="1">
          <mxGeometry x="509" y="898" width="140" height="50" as="geometry"/>
        </mxCell>
        <mxCell id="CehQnJ190Mu7V5oRBS2e-19" style="edgeStyle=none;rounded=0;orthogonalLoop=1;jettySize=auto;html=1;entryX=0;entryY=0.5;entryDx=0;entryDy=0;entryPerimeter=0;dashed=1;" edge="1" parent="1" source="CehQnJ190Mu7V5oRBS2e-20" target="CehQnJ190Mu7V5oRBS2e-41">
          <mxGeometry relative="1" as="geometry"/>
        </mxCell>
        <mxCell id="CehQnJ190Mu7V5oRBS2e-20" value="基础资源管理&lt;br style=&quot;font-size: 19px&quot;&gt;" style="ellipse;whiteSpace=wrap;html=1;fontSize=19;" vertex="1" parent="1">
          <mxGeometry x="518" y="1083" width="140" height="49" as="geometry"/>
        </mxCell>
        <mxCell id="CehQnJ190Mu7V5oRBS2e-21" style="edgeStyle=none;rounded=0;orthogonalLoop=1;jettySize=auto;html=1;entryX=0;entryY=0.5;entryDx=0;entryDy=0;entryPerimeter=0;dashed=1;fontSize=15;exitX=1;exitY=0.5;exitDx=0;exitDy=0;" edge="1" parent="1" source="CehQnJ190Mu7V5oRBS2e-22" target="CehQnJ190Mu7V5oRBS2e-46">
          <mxGeometry relative="1" as="geometry"/>
        </mxCell>
        <mxCell id="CehQnJ190Mu7V5oRBS2e-22" value="智能合约管理" style="ellipse;whiteSpace=wrap;html=1;fontSize=19;" vertex="1" parent="1">
          <mxGeometry x="518" y="1343" width="140" height="56" as="geometry"/>
        </mxCell>
        <mxCell id="CehQnJ190Mu7V5oRBS2e-23" style="edgeStyle=none;rounded=0;orthogonalLoop=1;jettySize=auto;html=1;entryX=0;entryY=0.5;entryDx=0;entryDy=0;fontSize=19;fillColor=#dae8fc;strokeColor=#6c8ebf;" edge="1" parent="1" source="CehQnJ190Mu7V5oRBS2e-28" target="CehQnJ190Mu7V5oRBS2e-22">
          <mxGeometry relative="1" as="geometry"/>
        </mxCell>
        <mxCell id="CehQnJ190Mu7V5oRBS2e-24" style="edgeStyle=none;rounded=0;orthogonalLoop=1;jettySize=auto;html=1;entryX=0;entryY=0.5;entryDx=0;entryDy=0;fontSize=19;fillColor=#dae8fc;strokeColor=#6c8ebf;" edge="1" parent="1" source="CehQnJ190Mu7V5oRBS2e-28" target="CehQnJ190Mu7V5oRBS2e-30">
          <mxGeometry relative="1" as="geometry"/>
        </mxCell>
        <mxCell id="CehQnJ190Mu7V5oRBS2e-25" style="edgeStyle=none;rounded=0;orthogonalLoop=1;jettySize=auto;html=1;entryX=0;entryY=0.5;entryDx=0;entryDy=0;fontSize=19;fillColor=#dae8fc;strokeColor=#6c8ebf;" edge="1" parent="1" source="CehQnJ190Mu7V5oRBS2e-28" target="CehQnJ190Mu7V5oRBS2e-32">
          <mxGeometry relative="1" as="geometry"/>
        </mxCell>
        <mxCell id="CehQnJ190Mu7V5oRBS2e-26" style="edgeStyle=none;rounded=0;orthogonalLoop=1;jettySize=auto;html=1;entryX=0;entryY=0.5;entryDx=0;entryDy=0;fontSize=19;fillColor=#dae8fc;strokeColor=#6c8ebf;" edge="1" parent="1" source="CehQnJ190Mu7V5oRBS2e-28" target="CehQnJ190Mu7V5oRBS2e-33">
          <mxGeometry relative="1" as="geometry"/>
        </mxCell>
        <mxCell id="CehQnJ190Mu7V5oRBS2e-28" value="操作员&lt;br style=&quot;font-size: 19px&quot;&gt;" style="shape=umlActor;verticalLabelPosition=bottom;labelBackgroundColor=#ffffff;verticalAlign=top;html=1;fontSize=19;" vertex="1" parent="1">
          <mxGeometry x="258" y="1235.5" width="30" height="60" as="geometry"/>
        </mxCell>
        <mxCell id="CehQnJ190Mu7V5oRBS2e-29" style="edgeStyle=none;rounded=0;orthogonalLoop=1;jettySize=auto;html=1;entryX=0;entryY=0.5;entryDx=0;entryDy=0;entryPerimeter=0;dashed=1;fontSize=15;exitX=1;exitY=0.5;exitDx=0;exitDy=0;" edge="1" parent="1" source="CehQnJ190Mu7V5oRBS2e-30" target="CehQnJ190Mu7V5oRBS2e-47">
          <mxGeometry relative="1" as="geometry"/>
        </mxCell>
        <mxCell id="CehQnJ190Mu7V5oRBS2e-30" value="系统监控" style="ellipse;whiteSpace=wrap;html=1;fontSize=19;" vertex="1" parent="1">
          <mxGeometry x="511" y="1431" width="140" height="50" as="geometry"/>
        </mxCell>
        <mxCell id="CehQnJ190Mu7V5oRBS2e-31" style="rounded=0;orthogonalLoop=1;jettySize=auto;html=1;entryX=0;entryY=0.5;entryDx=0;entryDy=0;entryPerimeter=0;dashed=1;exitX=1;exitY=0.5;exitDx=0;exitDy=0;" edge="1" parent="1" source="CehQnJ190Mu7V5oRBS2e-18" target="CehQnJ190Mu7V5oRBS2e-40">
          <mxGeometry relative="1" as="geometry"/>
        </mxCell>
        <mxCell id="CehQnJ190Mu7V5oRBS2e-32" value="系统仪表盘" style="ellipse;whiteSpace=wrap;html=1;fontSize=19;" vertex="1" parent="1">
          <mxGeometry x="518" y="1022" width="140" height="55" as="geometry"/>
        </mxCell>
        <mxCell id="CehQnJ190Mu7V5oRBS2e-33" value="系统日志" style="ellipse;whiteSpace=wrap;html=1;fontSize=19;" vertex="1" parent="1">
          <mxGeometry x="511" y="1506" width="140" height="50" as="geometry"/>
        </mxCell>
        <mxCell id="CehQnJ190Mu7V5oRBS2e-34" style="edgeStyle=none;rounded=0;orthogonalLoop=1;jettySize=auto;html=1;entryX=0;entryY=0.5;entryDx=0;entryDy=0;fontSize=19;exitX=1;exitY=0.3333333333333333;exitDx=0;exitDy=0;exitPerimeter=0;fillColor=#f8cecc;strokeColor=#b85450;" edge="1" parent="1" source="CehQnJ190Mu7V5oRBS2e-38" target="CehQnJ190Mu7V5oRBS2e-32">
          <mxGeometry relative="1" as="geometry"/>
        </mxCell>
        <mxCell id="CehQnJ190Mu7V5oRBS2e-35" style="edgeStyle=none;rounded=0;orthogonalLoop=1;jettySize=auto;html=1;entryX=0;entryY=0.5;entryDx=0;entryDy=0;fontSize=19;fillColor=#f8cecc;strokeColor=#b85450;" edge="1" parent="1" source="CehQnJ190Mu7V5oRBS2e-38" target="CehQnJ190Mu7V5oRBS2e-33">
          <mxGeometry relative="1" as="geometry"/>
        </mxCell>
        <mxCell id="CehQnJ190Mu7V5oRBS2e-36" style="edgeStyle=none;rounded=0;orthogonalLoop=1;jettySize=auto;html=1;entryX=0;entryY=0.5;entryDx=0;entryDy=0;fontSize=19;fillColor=#f8cecc;strokeColor=#b85450;" edge="1" parent="1" source="CehQnJ190Mu7V5oRBS2e-38" target="CehQnJ190Mu7V5oRBS2e-30">
          <mxGeometry relative="1" as="geometry"/>
        </mxCell>
        <mxCell id="CehQnJ190Mu7V5oRBS2e-38" value="审核员" style="shape=umlActor;verticalLabelPosition=bottom;labelBackgroundColor=#ffffff;verticalAlign=top;html=1;fontSize=19;" vertex="1" parent="1">
          <mxGeometry x="258" y="1373" width="30" height="60" as="geometry"/>
        </mxCell>
        <mxCell id="CehQnJ190Mu7V5oRBS2e-40" value="角色增删改查&lt;br style=&quot;font-size: 15px&quot;&gt;角色权限&lt;br&gt;角色成员管理" style="shape=note;whiteSpace=wrap;html=1;backgroundOutline=1;darkOpacity=0.05;fontSize=15;align=left;dashed=1;dashPattern=1 1;" vertex="1" parent="1">
          <mxGeometry x="752" y="888" width="160" height="80" as="geometry"/>
        </mxCell>
        <mxCell id="CehQnJ190Mu7V5oRBS2e-41" value="基础主机管理" style="shape=note;whiteSpace=wrap;html=1;backgroundOutline=1;darkOpacity=0.05;fontSize=15;align=left;dashed=1;dashPattern=1 1;" vertex="1" parent="1">
          <mxGeometry x="745" y="1077" width="187" height="80" as="geometry"/>
        </mxCell>
        <mxCell id="CehQnJ190Mu7V5oRBS2e-42" value="" style="edgeStyle=none;rounded=0;orthogonalLoop=1;jettySize=auto;html=1;dashed=1;fontSize=15;exitX=1;exitY=0.5;exitDx=0;exitDy=0;entryX=0;entryY=0.5;entryDx=0;entryDy=0;entryPerimeter=0;" edge="1" parent="1" source="CehQnJ190Mu7V5oRBS2e-17" target="CehQnJ190Mu7V5oRBS2e-44">
          <mxGeometry relative="1" as="geometry"/>
        </mxCell>
        <mxCell id="CehQnJ190Mu7V5oRBS2e-43" value="网络创建&lt;br&gt;网络加入&lt;br&gt;联盟成员加入审批&lt;br&gt;已有网络接管" style="shape=note;whiteSpace=wrap;html=1;backgroundOutline=1;darkOpacity=0.05;fontSize=15;align=left;dashed=1;dashPattern=1 1;" vertex="1" parent="1">
          <mxGeometry x="745" y="1172" width="174" height="100" as="geometry"/>
        </mxCell>
        <mxCell id="CehQnJ190Mu7V5oRBS2e-44" value="通道创建&lt;br&gt;通道申请加入&lt;br&gt;通道加入审批" style="shape=note;whiteSpace=wrap;html=1;backgroundOutline=1;darkOpacity=0.05;fontSize=15;align=left;dashed=1;dashPattern=1 1;" vertex="1" parent="1">
          <mxGeometry x="744.5" y="1281" width="180" height="77" as="geometry"/>
        </mxCell>
        <mxCell id="CehQnJ190Mu7V5oRBS2e-45" value="成员创建&lt;br&gt;证书下载" style="shape=note;whiteSpace=wrap;html=1;backgroundOutline=1;darkOpacity=0.05;fontSize=15;align=left;dashed=1;dashPattern=1 1;" vertex="1" parent="1">
          <mxGeometry x="745" y="1379" width="180" height="77" as="geometry"/>
        </mxCell>
        <mxCell id="CehQnJ190Mu7V5oRBS2e-46" value="合约查询&lt;br&gt;合约删除&lt;br&gt;合约部署&lt;br&gt;合约升级&lt;br&gt;版本管理" style="shape=note;whiteSpace=wrap;html=1;backgroundOutline=1;darkOpacity=0.05;fontSize=15;align=left;dashed=1;dashPattern=1 1;" vertex="1" parent="1">
          <mxGeometry x="748" y="1463" width="180" height="150" as="geometry"/>
        </mxCell>
        <mxCell id="CehQnJ190Mu7V5oRBS2e-47" value="状态监控&lt;br&gt;状态管理(启停操作)&lt;br style=&quot;font-size: 15px&quot;&gt;" style="shape=note;whiteSpace=wrap;html=1;backgroundOutline=1;darkOpacity=0.05;fontSize=15;align=left;dashed=1;dashPattern=1 1;" vertex="1" parent="1">
          <mxGeometry x="748" y="1621.5" width="180" height="77" as="geometry"/>
        </mxCell>
        <mxCell id="CehQnJ190Mu7V5oRBS2e-50" value="平台管理员" style="shape=umlActor;verticalLabelPosition=bottom;labelBackgroundColor=#ffffff;verticalAlign=top;html=1;fontSize=19;" vertex="1" parent="1">
          <mxGeometry x="258" y="933" width="30" height="60" as="geometry"/>
        </mxCell>
        <mxCell id="CehQnJ190Mu7V5oRBS2e-51" value="平台成员管理" style="ellipse;whiteSpace=wrap;html=1;fontSize=19;" vertex="1" parent="1">
          <mxGeometry x="518" y="960" width="140" height="50" as="geometry"/>
        </mxCell>
        <mxCell id="CehQnJ190Mu7V5oRBS2e-52" value="" style="endArrow=classic;html=1;fontSize=12;exitX=1;exitY=0.3333333333333333;exitDx=0;exitDy=0;exitPerimeter=0;entryX=0;entryY=0.5;entryDx=0;entryDy=0;" edge="1" parent="1" source="CehQnJ190Mu7V5oRBS2e-50" target="CehQnJ190Mu7V5oRBS2e-18">
          <mxGeometry width="50" height="50" relative="1" as="geometry">
            <mxPoint x="331" y="950" as="sourcePoint"/>
            <mxPoint x="381" y="900" as="targetPoint"/>
          </mxGeometry>
        </mxCell>
        <mxCell id="CehQnJ190Mu7V5oRBS2e-53" value="" style="endArrow=classic;html=1;fontSize=12;exitX=1;exitY=0.3333333333333333;exitDx=0;exitDy=0;exitPerimeter=0;entryX=0;entryY=0.5;entryDx=0;entryDy=0;" edge="1" parent="1" source="CehQnJ190Mu7V5oRBS2e-50" target="CehQnJ190Mu7V5oRBS2e-51">
          <mxGeometry width="50" height="50" relative="1" as="geometry">
            <mxPoint x="337" y="1020" as="sourcePoint"/>
            <mxPoint x="387" y="970" as="targetPoint"/>
          </mxGeometry>
        </mxCell>
        <mxCell id="CehQnJ190Mu7V5oRBS2e-54" value="平台成员增删改查&lt;br&gt;平台成员角色管理&lt;br style=&quot;font-size: 15px&quot;&gt;" style="shape=note;whiteSpace=wrap;html=1;backgroundOutline=1;darkOpacity=0.05;fontSize=15;align=left;dashed=1;dashPattern=1 1;" vertex="1" parent="1">
          <mxGeometry x="752" y="985" width="160" height="80" as="geometry"/>
        </mxCell>
        <mxCell id="CehQnJ190Mu7V5oRBS2e-55" value="" style="endArrow=classic;html=1;fontSize=12;exitX=1;exitY=0.5;exitDx=0;exitDy=0;entryX=0;entryY=0.5;entryDx=0;entryDy=0;entryPerimeter=0;dashed=1;" edge="1" parent="1" source="CehQnJ190Mu7V5oRBS2e-51" target="CehQnJ190Mu7V5oRBS2e-54">
          <mxGeometry width="50" height="50" relative="1" as="geometry">
            <mxPoint x="692" y="1024" as="sourcePoint"/>
            <mxPoint x="742" y="1024" as="targetPoint"/>
          </mxGeometry>
        </mxCell>
      </root>
    </mxGraphModel>
  </diagram>
</mxfile>
